<?xml version="1.0" standalone="no"?>
<!DOCTYPE svg PUBLIC "-//W3C//DTD SVG 20010904//EN"
 "http://www.w3.org/TR/2001/REC-SVG-20010904/DTD/svg10.dtd">
<svg version="1.0" xmlns="http://www.w3.org/2000/svg"
 width="365.000000pt" height="190.000000pt" viewBox="0 0 365.000000 190.000000"
 preserveAspectRatio="xMidYMid meet">

<g transform="translate(0.000000,190.000000) scale(0.100000,-0.100000)"
fill="#000000" stroke="none">
<path d="M0 950 l0 -950 1825 0 1825 0 0 950 0 950 -1825 0 -1825 0 0 -950z
m1950 628 c0 -5 -7 -8 -16 -8 -9 0 -36 -13 -60 -30 -61 -41 -59 -12 3 46 47
43 48 43 60 21 7 -12 12 -25 13 -29z m100 -55 c-5 -112 -11 -133 -36 -133 -10
0 -14 14 -14 53 0 29 -6 62 -14 72 -10 14 -11 26 -4 47 9 25 51 68 67 68 3 0
4 -48 1 -107z m-286 -35 c18 -28 14 -98 -6 -98 -28 0 -109 47 -113 65 -8 40
-15 152 -10 157 7 7 106 -88 129 -124z m203 26 c41 -71 26 -182 -28 -209 -46
-24 -69 -20 -69 14 0 24 -7 32 -45 50 -25 12 -45 27 -45 34 0 45 121 164 155
154 6 -2 20 -21 32 -43z m283 17 c0 -22 -41 -55 -81 -66 -24 -6 -55 -15 -69
-19 -21 -7 -19 -2 19 37 24 26 54 48 65 50 39 8 66 7 66 -2z m-639 -21 c14 -8
19 -21 19 -51 0 -56 -27 -49 -51 14 -16 41 -17 47 -3 47 8 0 24 -5 35 -10z
m669 -51 c0 -6 -10 -24 -21 -41 l-22 -30 31 6 c16 4 32 3 35 -1 20 -32 -150
-158 -223 -166 l-45 -5 43 19 c56 24 104 62 138 107 l27 37 -44 -41 c-60 -56
-110 -92 -134 -96 -17 -2 -19 2 -17 24 3 23 -2 30 -32 45 l-36 17 27 29 c40
42 101 75 168 91 74 18 105 19 105 5z m-704 -33 c21 -21 34 -44 34 -60 0 -15
7 -42 14 -61 8 -19 14 -35 13 -35 -25 1 -109 37 -145 62 -56 39 -132 107 -132
119 0 5 41 9 91 9 90 0 91 0 125 -34z m107 -20 c12 -8 48 -21 80 -30 33 -8 67
-22 78 -32 27 -24 24 -60 -6 -80 -14 -9 -25 -23 -25 -30 0 -22 -68 -17 -107 7
-79 49 -114 172 -50 178 4 1 18 -5 30 -13z m335 -102 c31 -9 28 -37 -9 -79
-28 -32 -36 -35 -84 -35 -38 0 -60 6 -79 21 -35 28 -24 41 65 74 72 27 75 27
107 19z m-450 -29 c47 -5 152 -49 152 -65 0 -12 -39 -20 -103 -20 -59 0 -82
11 -167 80 l-25 20 48 -5 c26 -3 68 -7 95 -10z m285 -138 c-2 -23 -11 -62 -19
-86 -8 -25 -14 -59 -14 -77 0 -36 -14 -53 -24 -29 -6 18 0 61 19 125 7 25 16
62 20 83 8 51 24 38 18 -16z m-1428 -637 c12 -13 16 -29 13 -52 -3 -19 1 -42
9 -54 17 -27 8 -71 -17 -84 -10 -6 -46 -10 -79 -10 l-61 0 0 110 0 110 58 0
c46 0 63 -4 77 -20z m85 -87 l0 -83 55 0 c43 0 55 -3 55 -15 0 -13 -12 -15
-67 -13 l-68 3 -3 85 c-2 47 0 96 3 109 12 46 25 0 25 -86z m321 -60 c19 -45
8 -73 -13 -29 -16 36 -71 36 -123 1 -20 -15 -39 -24 -42 -22 -4 5 75 184 91
206 11 14 23 -8 87 -156z m190 148 l24 -20 -57 6 c-51 5 -59 3 -82 -20 -55
-55 -17 -137 63 -137 22 0 43 5 46 10 9 15 25 12 25 -4 0 -21 -55 -39 -94 -32
-46 9 -86 56 -86 102 0 46 14 71 53 94 41 25 78 25 108 1z m69 -97 c0 -63 -4
-104 -10 -104 -6 0 -10 44 -10 111 0 71 4 108 10 104 6 -3 10 -52 10 -111z
m130 104 c0 -7 -16 -29 -36 -49 l-36 -37 36 -47 c35 -45 46 -75 27 -75 -5 0
-12 8 -15 18 -4 10 -24 35 -45 56 l-40 39 47 53 c46 54 62 65 62 42z m160 -95
l0 -83 55 0 c43 0 55 -3 55 -15 0 -13 -12 -15 -67 -13 l-68 3 -3 85 c-2 47 0
96 3 109 12 46 25 0 25 -86z m293 80 c60 -54 52 -141 -18 -178 -69 -38 -155
15 -155 94 0 42 28 87 64 102 29 12 85 3 109 -18z m217 12 c0 -10 -11 -15 -35
-15 l-35 0 0 -95 c0 -57 -4 -95 -10 -95 -6 0 -10 38 -10 95 l0 95 -34 0 c-34
0 -52 11 -39 24 3 3 42 6 85 6 63 0 78 -3 78 -15z m69 -159 c8 -10 29 -16 52
-16 54 0 69 25 69 118 0 46 4 71 10 67 14 -8 13 -138 -1 -168 -22 -50 -91 -61
-136 -23 -24 21 -28 32 -31 95 -2 39 -1 79 4 88 5 12 10 -10 14 -63 3 -45 12
-89 19 -98z m275 164 c14 -5 26 -17 26 -25 0 -13 -4 -14 -20 -5 -12 6 -35 10
-53 8 -27 -2 -32 -7 -32 -28 0 -21 7 -26 48 -38 29 -8 53 -23 63 -38 15 -22
15 -26 0 -49 -9 -14 -28 -28 -42 -31 -35 -9 -88 8 -92 30 -3 15 -1 16 16 7 30
-16 88 -13 102 4 18 21 -2 42 -54 56 -54 14 -66 25 -66 60 0 47 49 70 104 49z
m283 -106 l42 -49 0 67 c1 72 8 101 22 92 12 -7 12 -201 0 -209 -5 -3 -37 29
-72 70 -34 41 -66 75 -70 75 -5 0 -9 -34 -9 -75 0 -43 -4 -75 -10 -75 -6 0
-10 44 -10 113 l1 112 32 -36 c17 -19 51 -57 74 -85z m243 101 c0 -12 -13 -15
-60 -15 l-60 0 0 -35 0 -35 56 0 c73 0 70 -24 -4 -28 -50 -3 -52 -4 -52 -32 0
-29 1 -29 63 -32 86 -4 74 -23 -15 -23 l-73 0 -3 85 c-4 130 -5 130 78 130 56
0 70 -3 70 -15z m85 -67 c17 -39 35 -73 41 -75 6 -2 16 14 23 35 11 32 11 47
1 76 -13 42 -8 59 10 27 14 -27 26 -27 33 0 3 12 10 18 16 14 7 -4 6 -18 -5
-43 -14 -33 -13 -40 2 -74 9 -21 20 -38 24 -38 4 0 20 30 36 68 27 67 54 108
54 84 0 -19 -82 -212 -91 -212 -4 0 -15 20 -25 45 -9 25 -20 45 -25 45 -4 0
-17 -21 -29 -47 -12 -28 -24 -43 -29 -37 -14 14 -81 180 -81 200 0 27 13 8 45
-68z m386 63 c13 -11 21 -23 16 -27 -4 -4 -13 -2 -19 4 -17 17 -73 15 -88 -3
-17 -21 2 -42 51 -55 44 -12 69 -34 69 -59 0 -52 -84 -80 -130 -43 -14 11 -22
24 -18 28 4 4 14 1 22 -5 8 -7 34 -11 58 -9 38 3 43 6 43 27 0 20 -9 27 -54
41 -29 10 -57 24 -62 32 -38 60 54 116 112 69z"/>
<path d="M310 410 l0 -81 58 3 c56 3 57 3 57 33 0 27 -4 30 -33 33 -38 4 -39
23 -1 32 17 4 24 13 24 30 0 23 -4 25 -52 28 l-53 3 0 -81z"/>
<path d="M722 414 c-13 -26 -21 -48 -19 -50 2 -3 75 15 85 21 5 4 -29 75 -36
75 -4 0 -18 -21 -30 -46z"/>
<path d="M1545 465 c-53 -52 -15 -135 63 -135 50 0 82 32 82 82 0 71 -94 105
-145 53z"/>
</g>
</svg>
